<?xml version="1.0" encoding="UTF-8"?>
<svg version="1.1" viewBox="0 0 1519 865" width="1280" height="1280" xmlns="http://www.w3.org/2000/svg">
<path transform="translate(332,2)" d="m0 0h38l29 3 31 6 27 8 28 11 19 9 23 13 24 16 13 11 13 12 15 14 10 9 13 12 132 121 11 10 4-2 8-7 10-9 13-12 10-7 13-6 15-3h13l14 3 11 5 11 7 8 8 9 14 5 13 2 13-1 16-5 16-6 10-9 11-24 22 5 5 16 15 10 9 13 12 120 110 11 11 16 12 19 12 17 9 23 9 18 5 25 4h35l22-3 24-6 22-8 18-8 19-11 14-10 13-11 16-16 10-13 12-19 11-23 9-27 5-22 2-13 1-12v-25l-3-25-5-21-7-20-12-25-10-16-10-13-9-10-7-8-11-10-17-13-20-12-21-10-27-9-26-5-8-1h-38l-20 3-20 5-20 7-16 8-12 7-13 10-12 11-14 9-14 5-6 1h-19l-15-4-13-7-11-9-8-11-5-10-4-14-1-6v-13l3-14 7-14 8-10 16-16 14-11 14-10 20-12 22-11 26-10 26-8 27-6 21-3 29-2h18l29 2 32 5 24 6 30 10 23 10 16 8 18 10 18 12 16 12 13 11 10 9 22 22 9 11 11 14 16 24 14 25 12 27 12 36 6 26 4 26 2 23v37l-3 31-5 27-7 27-10 28-11 24-10 19-12 19-10 14-11 14-9 10-7 8-18 18-11 9-15 12-19 13-15 9-23 12-23 10-33 11-25 6-31 5-20 2h-48l-26-3-26-5-27-8-24-9-29-14-20-12-12-8-14-10-16-13-14-12-15-14-13-12-15-14-39-36-12-11-26-24-12-11-26-24-12-11-6-4-11 11-8 7-16 15-12 11-26 24-15 14-26 24-15 14-12 11-15 14-12 11-14 13-11 9-14 11-19 13-15 9-23 12-23 10-31 10-26 6-27 4-25 2h-32l-25-2-30-5-28-7-29-10-20-9-16-8-16-9-18-12-16-12-13-11-10-9-22-22-9-11-14-18-13-20-12-21-11-23-11-29-7-25-5-24-4-31-1-17v-24l2-27 5-32 7-28 10-29 11-25 14-26 16-24 10-13 9-11 11-12 21-21 11-9 14-11 24-16 16-9 15-8 26-11 27-9 24-6 28-5zm-3 134-26 4-25 7-20 8-21 11-15 10-14 11-15 14-10 11-12 16-12 20-9 19-7 20-6 25-2 16v39l3 21 6 25 6 18 8 18 10 18 10 14 9 11 18 18 17 13 13 8 23 12 21 8 20 6 25 5 9 1h37l24-4 21-6 24-10 21-12 14-10 10-8 14-12 13-12 10-9 13-12 31-29 30-28 12-11 15-14 12-11 15-14 12-11-6-7-8-7-15-14-10-9-13-12-72-66-13-12-36-33-10-10-14-10-15-9-25-12-21-7-25-5-8-1z"/>
<path transform="translate(344,233)" d="m0 0h15l12 5 8 8 4 8 2 8v54h46l16 2 9 5 7 7 5 11 1 9-2 11-4 8-5 6-10 6-7 2h-56v56l-4 11-7 9-10 6-7 2h-10l-10-3-8-6-6-7-4-9-1-6v-52l-56-1-11-4-8-7-4-5-4-11v-13l4-11 8-9 10-5 3-1 15-1h43v-53l2-9 6-10 8-7z"/>
<path transform="translate(1093,317)" d="m0 0h151l12 3 9 6 6 8 4 10v14l-5 12-9 9-9 4-4 1h-157l-11-4-8-6-6-9-3-11 1-12 6-12 9-8 9-4z"/>
<path transform="translate(271,805)" d="m0 0h14l5 1-5 5-3 6v12h19v-11l-3-7-5-4 5-2h17l2 1v3l-5 4-1 3v37l7 7v2l-4 1h-14l-6-2 6-7 1-3v-14h-18l-1 6v9l6 8-4 3h-14l-4-1 1-4 4-4v-40l-2-4-3-3z"/>
<path transform="translate(1385,805)" d="m0 0h26l8 3 4 5 1 9-3 8 1 4 5 10-1 9-4 6-9 3h-30l-1-3 5-3 2-7v-37l-5-2-4-3zm14 7v15l2 1h8l5-2 1-2v-6l-4-5-4-1zm0 24v19h12l5-4 1-6-3-6-9-3z"/>
<path transform="translate(105,805)" d="m0 0h19l10 2 5 5 1 3v12l-3 5-6 4 6 12 7 8 4 3-1 4h-11l-6-7-11-16-1-1-2 6v7l3 5 3 3-4 3h-15l-3-1v-4l5-5v-38l-3-5-3-2v-2zm11 7v18l10-1 5-4v-8l-4-4-4-1z"/>
<path transform="translate(582,805)" d="m0 0h9l5 5 11 15 10 14 1 1v-24l-4-6-2-4 2-1h14l3 2-4 6-1 4v47l-5-2-8-10-10-14-9-13h-1v28l5 6v2l-4 2h-10l-5-2v-3l5-5v-37l-5-10z"/>
<path transform="translate(759,805)" d="m0 0h25l7 1v13l-5-1-3-5-4-1h-13v16h14l2-6h5v21h-5l-4-5-7-1h-5v18h14l6-3 3-5 6-2-1 9-3 8h-41v-4l5-3 1-3v-37l-1-4-5-1v-3z"/>
<path transform="translate(1236,803)" d="m0 0 4 5 8 21 6 16 6 11 3 5-5 2h-11l-6-2 5-6-1-9-18 1-2 5 1 5 3 5h-18l2-5 7-14 12-33zm-1 20-4 9-1 6h12l-5-15z"/>
<path transform="translate(1053,805)" d="m0 0h13l5 2-2 4-5 1v43h14l6-4 4-5 5-1-1 8-3 10h-41l1-5 4-4 1-3v-35l-2-4-4-2-1-3z"/>
<path transform="translate(441,805)" d="m0 0h17l3 1v3l-7 4v41l5 3 2 1v4l-4 1h-18l-4-1 2-4 6-4v-42l-6-2-1-3z"/>
<path transform="translate(919,823)" d="m0 0 5 1 3 3v5l-3 3-5-1-3-3v-5z"/>
</svg>
